<svg xmlns="http://www.w3.org/2000/svg" viewBox="0 0 500 500"><defs><style>.cls-1{fill:#ee7025;}.cls-2{fill:#fff;fill-rule:evenodd;}</style></defs><g id="Camada_2" data-name="Camada 2"><g id="Camada_1-2" data-name="Camada 1"><circle class="cls-1" cx="250" cy="250" r="250"/><path class="cls-2" d="M431.91,300.63c-21.34,44.14-77.44,76.33-131.45,47-14.67-8-35-26.88-40.55-42.92C268.32,289,279.4,272.47,286.15,255c8.41,35.51,34.77,63.29,69.65,56.74,23.31-4.38,42.38-27.37,45.77-53.33,3.09-23.71-9.26-46.8-22.63-58.38-19.62-17-49.37-18-70.17,2C271.45,237.82,263,331,189.57,354.05,84.16,387.13,21.41,253.52,80.83,180.8c43.66-53.43,109.77-50.92,146.53-5.6-1.89,4.56.3.19-2.65,4.46L200.91,210c-14.82-11.68-33.86-34.41-67.85-17C81,219.7,93.55,303.49,148.22,312.13c50.11,7.92,78.51-59.78,99.06-96.54,26.8-47.94,57-85.45,117.14-72.07C426.58,157.34,460.46,241.56,431.91,300.63Z"/></g></g></svg>